# xmcd
#
# Track frame offsets:
#	150
#	15953
#	28004
#	41594
#	56295
#	76080
#	94069
#	114807
#	128456
#	148112
#	164905
#	183502
#	201850
#	216466
#	232252
#
# Disc length: 3336 seconds
#
# Revision: 0
# Processed by: cddbd v1.5.2PL0 Copyright (c) Steve Scherf et al.
# Submitted via: EZCDAudioConverter 7.0.0.1
#
DISCID=c90d060f
DTITLE=ŠLĀGERVARAVĪKSNE
DYEAR=1900
DGENRE=
TTITLE0=INGA and NORMUNDS - Balto Margrietiņu Valsis
TTITLE1=IMANTS and LAIMA - Sarkankrūtīts Sārts
TTITLE2=ANDRIS ROGA - Lai Nebūtu
TTITLE3=DAINIS PORGANTS - Kādreiz
TTITLE4=FEDJA and SANDRA - Dūmi
TTITLE5=VIKTORS LAPČENOKS - Vecais Draugs
TTITLE6=LAIMA DZALBE - Auga Auga Rozīte
TTITLE7=CĪRUĻI - Lietus Dziesmiņa
TTITLE8=FEDJA - Dzīvē Ienāca Zeima
TTITLE9=INGA and NORMUNDS - Noktirne
TTITLE10=DAINIS PORGANTS - Saules Zaķēns
TTITLE11=CĪRUĻI - Mīlestība Tepat
TTITLE12=IMANTS and LAIMA - Vēl Viens Tavs Vārds
TTITLE13=LAIMONIS BEGINSKIS - Sirds
TTITLE14=VIKTORS LAPČENOKS - Ceļa Maize
EXTD=
EXTT0=
EXTT1=
EXTT2=
EXTT3=
EXTT4=
EXTT5=
EXTT6=
EXTT7=
EXTT8=
EXTT9=
EXTT10=
EXTT11=
EXTT12=
EXTT13=
EXTT14=
PLAYORDER=
